<?xml version="1.0" standalone="no"?>
<!DOCTYPE svg PUBLIC "-//W3C//DTD SVG 20010904//EN"
 "http://www.w3.org/TR/2001/REC-SVG-20010904/DTD/svg10.dtd">
<svg version="1.0" xmlns="http://www.w3.org/2000/svg"
 width="115.000000pt" height="115.000000pt" viewBox="0 0 115.000000 115.000000"
 preserveAspectRatio="xMidYMid meet">
<metadata>
Created by potrace 1.14, written by Peter Selinger 2001-2017
</metadata>
<g transform="translate(0.000000,115.000000) scale(0.100000,-0.100000)"
fill="#000000" stroke="none">
<path d="M80 775 l0 -105 40 0 40 0 0 -200 c0 -127 4 -200 10 -200 6 0 10 73
10 200 l0 200 40 0 40 0 0 105 c0 63 -4 105 -10 105 -6 0 -10 -38 -10 -95 l0
-95 -30 0 -30 0 0 89 c0 50 -4 93 -10 96 -6 4 -10 -28 -10 -89 l0 -96 -30 0
-30 0 0 95 c0 57 -4 95 -10 95 -6 0 -10 -42 -10 -105z"/>
<path d="M503 862 c-217 -77 -280 -335 -124 -505 58 -63 127 -91 221 -92 62 0
85 5 132 28 65 32 121 90 151 156 30 64 30 178 0 242 -66 146 -236 222 -380
171z m187 -18 c75 -22 162 -109 184 -184 34 -115 12 -206 -73 -291 -85 -85
-176 -107 -291 -73 -75 22 -162 109 -184 184 -35 116 -11 208 74 292 85 84
176 106 290 72z"/>
<path d="M540 801 c-112 -36 -174 -119 -174 -231 0 -137 96 -234 234 -234 138
0 234 97 234 234 0 95 -44 169 -128 212 -43 22 -128 32 -166 19z m124 -22 c79
-22 156 -125 156 -208 0 -89 -76 -188 -160 -211 -147 -40 -288 73 -278 222 10
143 142 236 282 197z"/>
<path d="M980 570 c0 -200 4 -310 10 -310 6 0 10 43 10 110 l0 110 35 0 35 0
0 166 0 166 -34 34 c-19 19 -39 34 -45 34 -8 0 -11 -91 -11 -310z m50 258 c18
-20 20 -35 20 -175 l0 -153 -25 0 -25 0 0 175 c0 96 2 175 5 175 2 0 13 -10
25 -22z"/>
</g>
</svg>
