<?xml version="1.0" standalone="no"?>
<svg viewBox="0 0 200 200" xmlns="http://www.w3.org/2000/svg">
  <path fill="#E6005C" d="M33.1,-54.9C44.6,-44.2,56.7,-37.8,67.7,-27C78.6,-16.2,88.5,-1,82,8.5C75.6,18.1,52.8,22.1,38.6,27.2C24.4,32.3,18.8,38.4,9.6,48.1C0.5,57.7,-12,70.8,-26.1,73.6C-40.1,76.4,-55.5,69,-60.3,56.3C-65.1,43.6,-59.3,25.6,-58.9,10.1C-58.6,-5.4,-63.8,-18.4,-63.8,-33.6C-63.8,-48.7,-58.6,-65.9,-47.1,-76.5C-35.6,-87.1,-17.8,-91.3,-3.5,-85.8C10.8,-80.4,21.7,-65.5,33.1,-54.9Z" transform="translate(100 100)" />
</svg>
